<svg width="26" height="28" viewBox="0 0 26 28" fill="none" xmlns="http://www.w3.org/2000/svg">
<path d="M20.5 9C20.5 7.01088 19.7098 5.10322 18.3033 3.6967C16.8968 2.29018 14.9891 1.5 13 1.5C11.0109 1.5 9.10322 2.29018 7.6967 3.6967C6.29018 5.10322 5.5 7.01088 5.5 9C5.5 17.75 1.75 20.25 1.75 20.25H24.25C24.25 20.25 20.5 17.75 20.5 9Z" stroke="#F9F9F9" stroke-width="2" stroke-linecap="round" stroke-linejoin="round"/>
<path d="M15.1625 25.25C14.9428 25.6288 14.6273 25.9433 14.2478 26.1619C13.8683 26.3805 13.438 26.4956 13 26.4956C12.562 26.4956 12.1318 26.3805 11.7522 26.1619C11.3727 25.9433 11.0573 25.6288 10.8375 25.25" stroke="#F9F9F9" stroke-width="2" stroke-linecap="round" stroke-linejoin="round"/>
</svg>
