<svg width="53" height="66" viewBox="0 0 53 66" fill="none" xmlns="http://www.w3.org/2000/svg">
<circle cx="26.5" cy="32.5" r="26" stroke="#FFA634"/>
<path d="M13.92 19.36C15.5467 19.36 16.9867 19.52 18.24 19.84C19.4933 20.16 20.6133 20.5733 21.6 21.08L20.36 25.16C19.2667 24.6267 18.2133 24.2267 17.2 23.96C16.1867 23.6667 15.2 23.52 14.24 23.52C12.96 23.52 11.96 23.7733 11.24 24.28C10.5467 24.7867 10.2 25.4667 10.2 26.32C10.2 27.2 10.5067 27.8667 11.12 28.32C11.7333 28.7733 12.72 29.2133 14.08 29.64L16.48 30.4C18.48 31.0667 20.04 32.0133 21.16 33.24C22.3067 34.4667 22.88 35.9733 22.88 37.76C22.88 38.8267 22.68 39.8267 22.28 40.76C21.88 41.6933 21.28 42.5067 20.48 43.2C19.68 43.8933 18.68 44.44 17.48 44.84C16.28 45.24 14.88 45.44 13.28 45.44C10.2667 45.44 7.50667 44.8267 5 43.6L6.24 39.52C7.38667 40.08 8.50667 40.52 9.6 40.84C10.6933 41.1333 11.84 41.28 13.04 41.28C14.4533 41.28 15.52 41.0267 16.24 40.52C16.96 39.9867 17.32 39.2533 17.32 38.32C17.32 38 17.2533 37.6933 17.12 37.4C17.0133 37.08 16.8 36.7867 16.48 36.52C16.16 36.2267 15.72 35.9467 15.16 35.68C14.6267 35.3867 13.92 35.1067 13.04 34.84L10.92 34.12C9.98667 33.8 9.13333 33.4267 8.36 33C7.58667 32.5733 6.92 32.08 6.36 31.52C5.82667 30.96 5.4 30.3067 5.08 29.56C4.78667 28.7867 4.64 27.8933 4.64 26.88C4.64 25.7867 4.84 24.7867 5.24 23.88C5.64 22.9467 6.22667 22.1467 7 21.48C7.8 20.8133 8.77333 20.2933 9.92 19.92C11.0933 19.5467 12.4267 19.36 13.92 19.36ZM36.0053 19.8C37.952 19.8 39.7253 20.0533 41.3253 20.56C42.9253 21.0667 44.2986 21.8267 45.4453 22.84C46.592 23.8533 47.472 25.12 48.0853 26.64C48.7253 28.1333 49.0453 29.88 49.0453 31.88C49.0453 34.1733 48.672 36.1467 47.9253 37.8C47.1786 39.4267 46.1653 40.7867 44.8853 41.88C43.6053 42.9467 42.0986 43.7333 40.3653 44.24C38.6586 44.7467 36.8453 45 34.9253 45H27.2053V19.8H36.0053ZM32.6853 40.76H34.5653C35.6853 40.76 36.7653 40.6267 37.8053 40.36C38.872 40.0667 39.8053 39.5867 40.6053 38.92C41.4053 38.2267 42.0453 37.32 42.5253 36.2C43.0053 35.0533 43.2453 33.6133 43.2453 31.88C43.2453 29.3467 42.5253 27.4133 41.0853 26.08C39.6453 24.72 37.712 24.04 35.2853 24.04H32.6853V40.76Z" fill="url(#paint0_linear_130_6)"/>
<defs>
<linearGradient id="paint0_linear_130_6" x1="51" y1="2.17659e-05" x2="-2.08245" y2="3.88033" gradientUnits="userSpaceOnUse">
<stop stop-color="#FF267A"/>
<stop offset="1" stop-color="#FFA634"/>
</linearGradient>
</defs>
</svg>
